<svg width="24" height="31" viewBox="0 0 24 31" fill="none" xmlns="http://www.w3.org/2000/svg">
<path d="M14.2437 14.3871C14.2434 14.8906 14.1439 15.389 13.951 15.854C13.758 16.3191 13.4753 16.7415 13.119 17.0973C12.7628 17.453 12.3399 17.7351 11.8746 17.9274C11.4094 18.1198 10.9107 18.2185 10.4073 18.2181C9.9038 18.2185 9.40519 18.1198 8.9399 17.9274C8.47461 17.7351 8.05176 17.453 7.69551 17.0973C7.33925 16.7415 7.05656 16.3191 6.86359 15.854C6.67062 15.389 6.57114 14.8906 6.57083 14.3871C6.57114 13.8836 6.67062 13.3851 6.86359 12.9201C7.05656 12.4551 7.33925 12.0327 7.69551 11.6769C8.05176 11.3211 8.47461 11.0391 8.9399 10.8467C9.40519 10.6544 9.9038 10.5556 10.4073 10.556C10.9107 10.5556 11.4094 10.6544 11.8746 10.8467C12.3399 11.0391 12.7628 11.3211 13.119 11.6769C13.4753 12.0327 13.758 12.4551 13.951 12.9201C14.1439 13.3851 14.2434 13.8836 14.2437 14.3871ZM17.0488 0.25L13.7496 5.3321C18.3592 9.17085 21.3932 14.6546 22.7352 20.4559C23.0512 15.2011 22.5464 9.7274 20.0889 4.98523C19.2433 3.30712 18.2104 1.72692 17.0488 0.25ZM8.77542 5.05615L0.25 17.9861C6.73271 18.9743 12.8986 21.9096 17.694 26.3828C19.0352 27.6138 20.2994 28.9265 21.4788 30.3125C22.0445 23.3642 20.2577 16.0413 15.6512 10.6794C13.7296 8.40542 11.3754 6.50608 8.77542 5.05615Z" fill="#FECE1D" stroke="#FECE1D" stroke-width="0.5" stroke-linecap="round" stroke-linejoin="round"/>
</svg>
